<svg width="33" height="30" viewBox="0 0 33 30" fill="none" xmlns="http://www.w3.org/2000/svg">
<path d="M0 3.125C0 1.81133 1.05335 0.75 2.35714 0.75H30.6429C31.9467 0.75 33 1.81133 33 3.125C33 4.43867 31.9467 5.5 30.6429 5.5H2.35714C1.05335 5.5 0 4.43867 0 3.125ZM0 15C0 13.6863 1.05335 12.625 2.35714 12.625H30.6429C31.9467 12.625 33 13.6863 33 15C33 16.3137 31.9467 17.375 30.6429 17.375H2.35714C1.05335 17.375 0 16.3137 0 15ZM33 26.875C33 28.1887 31.9467 29.25 30.6429 29.25H2.35714C1.05335 29.25 0 28.1887 0 26.875C0 25.5613 1.05335 24.5 2.35714 24.5H30.6429C31.9467 24.5 33 25.5613 33 26.875Z" fill="white"/>
</svg>
